<svg width="877" height="653" viewBox="0 0 877 653" fill="none" xmlns="http://www.w3.org/2000/svg">
<path d="M170 650.5C233.6 590.1 503.5 439.333 605 411C688.6 384.2 825.167 249.667 870 162" stroke="black" stroke-width="5"/>
<path d="M2.5 637C66.1 576.6 465.5 367.833 567 339.5C650.6 312.7 823.167 127.167 868 39.5" stroke="black" stroke-width="5"/>
<rect x="191" y="567.901" width="87" height="9" transform="rotate(-35 191 567.901)" fill="#D39C45"/>
<rect x="336" y="482.081" width="74.7311" height="9" transform="rotate(-29.7487 336 482.081)" fill="#D39C45"/>
<rect x="473" y="412.638" width="64.3165" height="9" transform="rotate(-24.4672 473 412.638)" fill="#D39C45"/>
<rect x="583" y="368.103" width="55.7813" height="9" transform="rotate(-24.4672 583 368.103)" fill="#D39C45"/>
<rect x="666" y="323.182" width="52.3376" height="9" transform="rotate(-40.7766 666 323.182)" fill="#D39C45"/>
<rect x="731" y="266.628" width="48.5056" height="9" transform="rotate(-45.5523 731 266.628)" fill="#D39C45"/>
<rect x="791" y="197.092" width="48.5056" height="9" transform="rotate(-51.7495 791 197.092)" fill="#D39C45"/>
<rect x="841" y="132.092" width="45.4825" height="9" transform="rotate(-51.7495 841 132.092)" fill="#D39C45"/>
<path d="M727 90.8117C727 84.0041 733.654 79.1864 740.122 81.3114L755.122 86.2399C759.226 87.5885 762 91.4201 762 95.7402V162.781C762 169.259 755.935 174.027 749.64 172.498L734.64 168.855C730.157 167.767 727 163.752 727 159.138V90.8117Z" fill="#513D3D"/>
<ellipse cx="741.91" cy="64" rx="38.5" ry="24" fill="#B54C36"/>
<ellipse cx="744.606" cy="59.1035" rx="25.1914" ry="39" transform="rotate(11.0439 744.606 59.1035)" fill="#B54C36"/>
<ellipse cx="729.195" cy="59.119" rx="25.1914" ry="42.0724" transform="rotate(4.87492 729.195 59.119)" fill="#B54C36"/>
<ellipse cx="729.195" cy="59.119" rx="25.1914" ry="42.0724" transform="rotate(4.87492 729.195 59.119)" fill="#B54C36"/>
<ellipse cx="746.166" cy="60.0407" rx="20.6481" ry="51.7104" transform="rotate(57.7771 746.166 60.0407)" fill="#B54C36"/>
<ellipse cx="743.148" cy="64.7048" rx="20.6481" ry="48.9686" transform="rotate(127.369 743.148 64.7048)" fill="#B54C36"/>
<ellipse cx="746.86" cy="56.1314" rx="20.6481" ry="48.9686" transform="rotate(127.369 746.86 56.1314)" fill="#B54C36"/>
<ellipse cx="731.326" cy="76.4876" rx="20.6481" ry="37.4889" transform="rotate(127.369 731.326 76.4876)" fill="#B54C36"/>
<ellipse cx="753.996" cy="67.0409" rx="20.6481" ry="37.4889" transform="rotate(79.6614 753.996 67.0409)" fill="#B54C36"/>
<ellipse cx="752.996" cy="56.0409" rx="20.6481" ry="37.4889" transform="rotate(79.6614 752.996 56.0409)" fill="#B54C36"/>
<ellipse cx="746.192" cy="47.8111" rx="20.6481" ry="37.4889" transform="rotate(59.5185 746.192 47.8111)" fill="#B54C36"/>
<path d="M603 179.812C603 173.004 609.654 168.186 616.122 170.311L631.122 175.24C635.226 176.588 638 180.42 638 184.74V251.781C638 258.259 631.935 263.027 625.64 261.498L610.64 257.855C606.157 256.767 603 252.752 603 248.138V179.812Z" fill="#513D3D"/>
<ellipse cx="617.91" cy="153" rx="38.5" ry="24" fill="#B54C36"/>
<ellipse cx="620.606" cy="148.103" rx="25.1914" ry="39" transform="rotate(11.0439 620.606 148.103)" fill="#B54C36"/>
<ellipse cx="605.195" cy="148.119" rx="25.1914" ry="42.0724" transform="rotate(4.87492 605.195 148.119)" fill="#B54C36"/>
<ellipse cx="605.195" cy="148.119" rx="25.1914" ry="42.0724" transform="rotate(4.87492 605.195 148.119)" fill="#B54C36"/>
<ellipse cx="622.166" cy="149.041" rx="20.6481" ry="51.7104" transform="rotate(57.7771 622.166 149.041)" fill="#B54C36"/>
<ellipse cx="619.148" cy="153.705" rx="20.6481" ry="48.9686" transform="rotate(127.369 619.148 153.705)" fill="#B54C36"/>
<ellipse cx="622.86" cy="145.131" rx="20.6481" ry="48.9686" transform="rotate(127.369 622.86 145.131)" fill="#B54C36"/>
<ellipse cx="607.326" cy="165.488" rx="20.6481" ry="37.4889" transform="rotate(127.369 607.326 165.488)" fill="#B54C36"/>
<ellipse cx="629.996" cy="156.041" rx="20.6481" ry="37.4889" transform="rotate(79.6614 629.996 156.041)" fill="#B54C36"/>
<ellipse cx="628.996" cy="145.041" rx="20.6481" ry="37.4889" transform="rotate(79.6614 628.996 145.041)" fill="#B54C36"/>
<ellipse cx="622.192" cy="136.811" rx="20.6481" ry="37.4889" transform="rotate(59.5185 622.192 136.811)" fill="#B54C36"/>
<path d="M653 422.812C653 416.004 659.654 411.186 666.122 413.311L681.122 418.24C685.226 419.588 688 423.42 688 427.74V494.781C688 501.259 681.935 506.027 675.64 504.498L660.64 500.855C656.157 499.767 653 495.752 653 491.138V422.812Z" fill="#513D3D"/>
<ellipse cx="667.91" cy="396" rx="38.5" ry="24" fill="#B54C36"/>
<ellipse cx="670.606" cy="391.103" rx="25.1914" ry="39" transform="rotate(11.0439 670.606 391.103)" fill="#B54C36"/>
<ellipse cx="655.195" cy="391.119" rx="25.1914" ry="42.0724" transform="rotate(4.87492 655.195 391.119)" fill="#B54C36"/>
<ellipse cx="655.195" cy="391.119" rx="25.1914" ry="42.0724" transform="rotate(4.87492 655.195 391.119)" fill="#B54C36"/>
<ellipse cx="672.166" cy="392.041" rx="20.6481" ry="51.7104" transform="rotate(57.7771 672.166 392.041)" fill="#B54C36"/>
<ellipse cx="669.148" cy="396.705" rx="20.6481" ry="48.9686" transform="rotate(127.369 669.148 396.705)" fill="#B54C36"/>
<ellipse cx="672.86" cy="388.131" rx="20.6481" ry="48.9686" transform="rotate(127.369 672.86 388.131)" fill="#B54C36"/>
<ellipse cx="657.326" cy="408.488" rx="20.6481" ry="37.4889" transform="rotate(127.369 657.326 408.488)" fill="#B54C36"/>
<ellipse cx="679.996" cy="399.041" rx="20.6481" ry="37.4889" transform="rotate(79.6614 679.996 399.041)" fill="#B54C36"/>
<ellipse cx="678.996" cy="388.041" rx="20.6481" ry="37.4889" transform="rotate(79.6614 678.996 388.041)" fill="#B54C36"/>
<ellipse cx="672.192" cy="379.811" rx="20.6481" ry="37.4889" transform="rotate(59.5185 672.192 379.811)" fill="#B54C36"/>
<path d="M409 488.812C409 482.004 415.654 477.186 422.122 479.311L437.122 484.24C441.226 485.588 444 489.42 444 493.74V560.781C444 567.259 437.935 572.027 431.64 570.498L416.64 566.855C412.157 565.767 409 561.752 409 557.138V488.812Z" fill="#513D3D"/>
<ellipse cx="423.91" cy="462" rx="38.5" ry="24" fill="#B54C36"/>
<ellipse cx="426.606" cy="457.103" rx="25.1914" ry="39" transform="rotate(11.0439 426.606 457.103)" fill="#B54C36"/>
<ellipse cx="411.195" cy="457.119" rx="25.1914" ry="42.0724" transform="rotate(4.87492 411.195 457.119)" fill="#B54C36"/>
<ellipse cx="411.195" cy="457.119" rx="25.1914" ry="42.0724" transform="rotate(4.87492 411.195 457.119)" fill="#B54C36"/>
<ellipse cx="428.166" cy="458.041" rx="20.6481" ry="51.7104" transform="rotate(57.7771 428.166 458.041)" fill="#B54C36"/>
<ellipse cx="425.148" cy="462.705" rx="20.6481" ry="48.9686" transform="rotate(127.369 425.148 462.705)" fill="#B54C36"/>
<ellipse cx="428.86" cy="454.131" rx="20.6481" ry="48.9686" transform="rotate(127.369 428.86 454.131)" fill="#B54C36"/>
<ellipse cx="413.326" cy="474.488" rx="20.6481" ry="37.4889" transform="rotate(127.369 413.326 474.488)" fill="#B54C36"/>
<ellipse cx="435.996" cy="465.041" rx="20.6481" ry="37.4889" transform="rotate(79.6614 435.996 465.041)" fill="#B54C36"/>
<ellipse cx="434.996" cy="454.041" rx="20.6481" ry="37.4889" transform="rotate(79.6614 434.996 454.041)" fill="#B54C36"/>
<ellipse cx="428.192" cy="445.811" rx="20.6481" ry="37.4889" transform="rotate(59.5185 428.192 445.811)" fill="#B54C36"/>
<path d="M45 461.812C45 455.004 51.6542 450.186 58.1215 452.311L73.1215 457.24C77.2258 458.588 80 462.42 80 466.74V533.781C80 540.259 73.935 545.027 67.64 543.498L52.64 539.855C48.1566 538.767 45 534.752 45 530.138V461.812Z" fill="#513D3D"/>
<ellipse cx="59.9103" cy="435" rx="38.5" ry="24" fill="#B54C36"/>
<ellipse cx="62.6061" cy="430.103" rx="25.1914" ry="39" transform="rotate(11.0439 62.6061 430.103)" fill="#B54C36"/>
<ellipse cx="47.1947" cy="430.119" rx="25.1914" ry="42.0724" transform="rotate(4.87492 47.1947 430.119)" fill="#B54C36"/>
<ellipse cx="47.1947" cy="430.119" rx="25.1914" ry="42.0724" transform="rotate(4.87492 47.1947 430.119)" fill="#B54C36"/>
<ellipse cx="64.1662" cy="431.041" rx="20.6481" ry="51.7104" transform="rotate(57.7771 64.1662 431.041)" fill="#B54C36"/>
<ellipse cx="61.1478" cy="435.705" rx="20.6481" ry="48.9686" transform="rotate(127.369 61.1478 435.705)" fill="#B54C36"/>
<ellipse cx="64.8599" cy="427.131" rx="20.6481" ry="48.9686" transform="rotate(127.369 64.8599 427.131)" fill="#B54C36"/>
<ellipse cx="49.3263" cy="447.488" rx="20.6481" ry="37.4889" transform="rotate(127.369 49.3263 447.488)" fill="#B54C36"/>
<ellipse cx="71.9962" cy="438.041" rx="20.6481" ry="37.4889" transform="rotate(79.6614 71.9962 438.041)" fill="#B54C36"/>
<ellipse cx="70.9962" cy="427.041" rx="20.6481" ry="37.4889" transform="rotate(79.6614 70.9962 427.041)" fill="#B54C36"/>
<ellipse cx="64.192" cy="418.811" rx="20.6481" ry="37.4889" transform="rotate(59.5185 64.192 418.811)" fill="#B54C36"/>
<path d="M767 292.812C767 286.004 773.654 281.186 780.122 283.311L795.122 288.24C799.226 289.588 802 293.42 802 297.74V364.781C802 371.259 795.935 376.027 789.64 374.498L774.64 370.855C770.157 369.767 767 365.752 767 361.138V292.812Z" fill="#513D3D"/>
<ellipse cx="781.91" cy="262" rx="38.5" ry="24" fill="#D47662"/>
<ellipse cx="784.606" cy="257.103" rx="25.1914" ry="39" transform="rotate(11.0439 784.606 257.103)" fill="#D47662"/>
<ellipse cx="769.195" cy="257.119" rx="25.1914" ry="42.0724" transform="rotate(4.87492 769.195 257.119)" fill="#D47662"/>
<ellipse cx="769.195" cy="257.119" rx="25.1914" ry="42.0724" transform="rotate(4.87492 769.195 257.119)" fill="#D47662"/>
<ellipse cx="786.166" cy="258.041" rx="20.6481" ry="51.7104" transform="rotate(57.7771 786.166 258.041)" fill="#D47662"/>
<ellipse cx="783.148" cy="262.705" rx="20.6481" ry="48.9686" transform="rotate(127.369 783.148 262.705)" fill="#D47662"/>
<ellipse cx="786.86" cy="254.131" rx="20.6481" ry="48.9686" transform="rotate(127.369 786.86 254.131)" fill="#D47662"/>
<ellipse cx="771.326" cy="274.488" rx="20.6481" ry="37.4889" transform="rotate(127.369 771.326 274.488)" fill="#D47662"/>
<ellipse cx="793.996" cy="265.041" rx="20.6481" ry="37.4889" transform="rotate(79.6614 793.996 265.041)" fill="#D47662"/>
<ellipse cx="792.996" cy="254.041" rx="20.6481" ry="37.4889" transform="rotate(79.6614 792.996 254.041)" fill="#D47662"/>
<ellipse cx="786.192" cy="245.811" rx="20.6481" ry="37.4889" transform="rotate(59.5185 786.192 245.811)" fill="#D47662"/>
<path d="M267 356.812C267 350.004 273.654 345.186 280.122 347.311L295.122 352.24C299.226 353.588 302 357.42 302 361.74V428.781C302 435.259 295.935 440.027 289.64 438.498L274.64 434.855C270.157 433.767 267 429.752 267 425.138V356.812Z" fill="#513D3D"/>
<ellipse cx="281.91" cy="326" rx="38.5" ry="24" fill="#D47662"/>
<ellipse cx="284.606" cy="321.103" rx="25.1914" ry="39" transform="rotate(11.0439 284.606 321.103)" fill="#D47662"/>
<ellipse cx="269.195" cy="321.119" rx="25.1914" ry="42.0724" transform="rotate(4.87492 269.195 321.119)" fill="#D47662"/>
<ellipse cx="269.195" cy="321.119" rx="25.1914" ry="42.0724" transform="rotate(4.87492 269.195 321.119)" fill="#D47662"/>
<ellipse cx="286.166" cy="322.041" rx="20.6481" ry="51.7104" transform="rotate(57.7771 286.166 322.041)" fill="#D47662"/>
<ellipse cx="283.148" cy="326.705" rx="20.6481" ry="48.9686" transform="rotate(127.369 283.148 326.705)" fill="#D47662"/>
<ellipse cx="286.86" cy="318.131" rx="20.6481" ry="48.9686" transform="rotate(127.369 286.86 318.131)" fill="#D47662"/>
<ellipse cx="271.326" cy="338.488" rx="20.6481" ry="37.4889" transform="rotate(127.369 271.326 338.488)" fill="#D47662"/>
<ellipse cx="293.996" cy="329.041" rx="20.6481" ry="37.4889" transform="rotate(79.6614 293.996 329.041)" fill="#D47662"/>
<ellipse cx="292.996" cy="318.041" rx="20.6481" ry="37.4889" transform="rotate(79.6614 292.996 318.041)" fill="#D47662"/>
<ellipse cx="286.192" cy="309.811" rx="20.6481" ry="37.4889" transform="rotate(59.5185 286.192 309.811)" fill="#D47662"/>
</svg>
